<?xml version="1.0" encoding="utf-8"?><svg xmlns="http://www.w3.org/2000/svg" xmlns:xlink="http://www.w3.org/1999/xlink" width="1366" height="661" preserveAspectRatio="xMidYMid" viewBox="0 0 1366 661" style="z-index:1;margin-right:-2px;display:block;background-repeat-y:initial;background-repeat-x:initial;background-color:rgb(153, 204, 255);animation-play-state:paused" ><g transform="translate(683,330.5) scale(1,1) translate(-683,-330.5)" style="transform:matrix(1, 0, 0, 1, 0, 0);animation-play-state:paused" ><defs style="animation-play-state:paused" ><linearGradient id="lg-0.28497795871207177" x1="0" x2="0" y1="0" y2="1" style="animation-play-state:paused" ><stop stop-color="#3184ce" offset="0" style="animation-play-state:paused" ></stop>

  
<stop stop-color="#e9f6ff" offset="1" style="animation-play-state:paused" ></stop></linearGradient></defs>


<rect x="0" y="0" width="1366" height="661" fill="url(#lg-0.28497795871207177)" style="animation-play-state:paused" ></rect>
<circle cx="0" cy="193.7557129294877" r="79.37023922542693" fill="#91cbf0" transform="matrix(1,0,0,1,0,0)" style="transform:matrix(1, 0, 0, 1, 0, 0);animation-play-state:paused" ></circle>
<circle cx="79.37023922542693" cy="254.4929189857786" r="32.53696479785683" fill="#91cbf0" transform="matrix(1,0,0,1,-0.005429734475910664,0)" style="transform:matrix(1, 0, 0, 1, -0.00542973, 0);animation-play-state:paused" ></circle>
<circle cx="111.90720402328375" cy="221.90714696502928" r="66.8665684247709" fill="#91cbf0" transform="matrix(1,0,0,1,-0.02211761102080345,0)" style="transform:matrix(1, 0, 0, 1, -0.0221176, 0);animation-play-state:paused" ></circle>
<circle cx="178.77377244805467" cy="250.09686111221276" r="43.91356235302362" fill="#91cbf0" transform="matrix(1,0,0,1,-0.05069173499941826,0)" style="transform:matrix(1, 0, 0, 1, -0.0506917, 0);animation-play-state:paused" ></circle>
<circle cx="222.6873348010783" cy="232.23874579886197" r="70.18406464119323" fill="#91cbf0" transform="matrix(1,0,0,1,-0.09182151407003403,0)" style="transform:matrix(1, 0, 0, 1, -0.0918215, 0);animation-play-state:paused" ></circle>
<circle cx="292.8713994422715" cy="262.84872436935586" r="38.15263571677683" fill="#91cbf0" transform="matrix(1,0,0,1,-0.14621856808662415,0)" style="transform:matrix(1, 0, 0, 1, -0.146219, 0);animation-play-state:paused" ></circle>
<circle cx="331.02403515904837" cy="264.3283856752301" r="39.89550960634537" fill="#91cbf0" transform="matrix(1,0,0,1,-0.21463675796985626,0)" style="transform:matrix(1, 0, 0, 1, -0.214637, 0);animation-play-state:paused" ></circle>
<circle cx="370.91954476539377" cy="256.16139702414137" r="59.89044773633414" fill="#91cbf0" transform="matrix(1,0,0,1,-0.29787102341651917,0)" style="transform:matrix(1, 0, 0, 1, -0.297871, 0);animation-play-state:paused" ></circle>
<circle cx="430.8099925017279" cy="265.38196509625124" r="53.3034529509492" fill="#91cbf0" transform="matrix(1,0,0,1,-0.39675408601760864,0)" style="transform:matrix(1, 0, 0, 1, -0.396754, 0);animation-play-state:paused" ></circle>
<circle cx="484.11344545267707" cy="270.6804644763587" r="52.42621348941698" fill="#91cbf0" transform="matrix(1,0,0,1,-0.5121508240699768,0)" style="transform:matrix(1, 0, 0, 1, -0.512151, 0);animation-play-state:paused" ></circle>
<circle cx="536.5396589420941" cy="272.78185904634495" r="63.02610767834018" fill="#91cbf0" transform="matrix(1,0,0,1,-0.6449490189552307,0)" style="transform:matrix(1, 0, 0, 1, -0.644949, 0);animation-play-state:paused" ></circle>
<circle cx="599.5657666204343" cy="279.37096810959144" r="65.68675425299874" fill="#91cbf0" transform="matrix(1,0,0,1,-0.7960466146469116,0)" style="transform:matrix(1, 0, 0, 1, -0.796047, 0);animation-play-state:paused" ></circle>
<circle cx="665.252520873433" cy="286.2853493331324" r="87.0596133798273" fill="#91cbf0" transform="matrix(1,0,0,1,-0.9663256406784058,0)" style="transform:matrix(1, 0, 0, 1, -0.966326, 0);animation-play-state:paused" ></circle>
<circle cx="752.3121342532603" cy="281.9874601169577" r="57.584490697031036" fill="#91cbf0" transform="matrix(1,0,0,1,-1.1566321849822998,0)" style="transform:matrix(1, 0, 0, 1, -1.15663, 0);animation-play-state:paused" ></circle>
<circle cx="809.8966249502913" cy="269.3825536614024" r="87.9897045758753" fill="#91cbf0" transform="matrix(1,0,0,1,-1.3677328824996948,0)" style="transform:matrix(1, 0, 0, 1, -1.36773, 0);animation-play-state:paused" ></circle>
<circle cx="897.8863295261666" cy="265.978082606615" r="60.9778575117442" fill="#91cbf0" transform="matrix(1,0,0,1,-1.6002659797668457,0)" style="transform:matrix(1, 0, 0, 1, -1.60027, 0);animation-play-state:paused" ></circle>
<circle cx="958.8641870379108" cy="255.1794062592261" r="69.77909967515437" fill="#91cbf0" transform="matrix(1,0,0,1,-1.8546770811080933,0)" style="transform:matrix(1, 0, 0, 1, -1.85468, 0);animation-play-state:paused" ></circle>
<circle cx="1028.6432867130652" cy="248.70573175507639" r="66.35208963793474" fill="#91cbf0" transform="matrix(1,0,0,1,-2.1311421394348145,0)" style="transform:matrix(1, 0, 0, 1, -2.13114, 0);animation-play-state:paused" ></circle>
<circle cx="1094.995376351" cy="254.2629058221121" r="47.98887860836197" fill="#91cbf0" transform="matrix(1,0,0,1,-2.429478168487549,0)" style="transform:matrix(1, 0, 0, 1, -2.42948, 0);animation-play-state:paused" ></circle>
<circle cx="1142.984254959362" cy="254.67648933133157" r="42.470580123029855" fill="#91cbf0" transform="matrix(1,0,0,1,-2.7490439414978027,0)" style="transform:matrix(1, 0, 0, 1, -2.74904, 0);animation-play-state:paused" ></circle>
<circle cx="1185.4548350823918" cy="232.66579671147502" r="63.81379671626484" fill="#91cbf0" transform="matrix(1,0,0,1,-3.088646411895752,0)" style="transform:matrix(1, 0, 0, 1, -3.08865, 0);animation-play-state:paused" ></circle>
<circle cx="1249.2686317986565" cy="197.50051713273052" r="91.9677565396288" fill="#91cbf0" transform="matrix(1,0,0,1,-3.4464573860168457,0)" style="transform:matrix(1, 0, 0, 1, -3.44646, 0);animation-play-state:paused" ></circle>
<circle cx="1341.2363883382855" cy="251.19199270666945" r="32.69199009003245" fill="#91cbf0" transform="matrix(1,0,0,1,-3.819972276687622,0)" style="transform:matrix(1, 0, 0, 1, -3.81997, 0);animation-play-state:paused" ></circle>
<circle cx="1373.928378428318" cy="199.7165771693482" r="73.54908228940954" fill="#91cbf0" transform="matrix(1,0,0,1,-4.20599889755249,0)" style="transform:matrix(1, 0, 0, 1, -4.206, 0);animation-play-state:paused" ></circle>
<circle cx="0" cy="268.69745064642456" r="68.58545779464622" fill="#a8d1f5" transform="matrix(1,0,0,1,0,0)" style="transform:matrix(1, 0, 0, 1, 0, 0);animation-play-state:paused" ></circle>
<circle cx="68.58545779464622" cy="257.96786573774693" r="86.18088621547436" fill="#a8d1f5" transform="matrix(1,0,0,1,-0.0221176166087389,0)" style="transform:matrix(1, 0, 0, 1, -0.0221176, 0);animation-play-state:paused" ></circle>
<circle cx="154.76634401012058" cy="282.13003061444124" r="74.20672739066227" fill="#a8d1f5" transform="matrix(1,0,0,1,-0.09182153642177582,0)" style="transform:matrix(1, 0, 0, 1, -0.0918215, 0);animation-play-state:paused" ></circle>
<circle cx="228.97307140078283" cy="307.6403675552983" r="54.35549283956121" fill="#a8d1f5" transform="matrix(1,0,0,1,-0.21463680267333984,0)" style="transform:matrix(1, 0, 0, 1, -0.214637, 0);animation-play-state:paused" ></circle>
<circle cx="283.328564240344" cy="290.93304635892764" r="85.540533352675" fill="#a8d1f5" transform="matrix(1,0,0,1,-0.3967541754245758,0)" style="transform:matrix(1, 0, 0, 1, -0.396754, 0);animation-play-state:paused" ></circle>
<circle cx="368.869097593019" cy="305.6987705519718" r="82.08027151506076" fill="#a8d1f5" transform="matrix(1,0,0,1,-0.6449490785598755,0)" style="transform:matrix(1, 0, 0, 1, -0.644949, 0);animation-play-state:paused" ></circle>
<circle cx="450.94936910807974" cy="335.6966248117566" r="37.53564905711777" fill="#a8d1f5" transform="matrix(1,0,0,1,-0.9663238525390625,0)" style="transform:matrix(1, 0, 0, 1, -0.966324, 0);animation-play-state:paused" ></circle>
<circle cx="488.4850181651975" cy="331.5972584442367" r="56.774000806105185" fill="#a8d1f5" transform="matrix(1,0,0,1,-1.367730975151062,0)" style="transform:matrix(1, 0, 0, 1, -1.36773, 0);animation-play-state:paused" ></circle>
<circle cx="545.2590189713027" cy="337.6848092949344" r="55.02039155691978" fill="#a8d1f5" transform="matrix(1,0,0,1,-1.8546746969223022,0)" style="transform:matrix(1, 0, 0, 1, -1.85467, 0);animation-play-state:paused" ></circle>
<circle cx="600.2794105282225" cy="337.6332251029454" r="91.97133096876583" fill="#a8d1f5" transform="matrix(1,0,0,1,-2.4294753074645996,0)" style="transform:matrix(1, 0, 0, 1, -2.42948, 0);animation-play-state:paused" ></circle>
<circle cx="692.2507414969883" cy="350.4036540738643" r="36.69113692879835" fill="#a8d1f5" transform="matrix(1,0,0,1,-3.0886433124542236,0)" style="transform:matrix(1, 0, 0, 1, -3.08864, 0);animation-play-state:paused" ></circle>
<circle cx="728.9418784257866" cy="344.6437007133112" r="78.74718669121208" fill="#a8d1f5" transform="matrix(1,0,0,1,-3.8199734687805176,0)" style="transform:matrix(1, 0, 0, 1, -3.81997, 0);animation-play-state:paused" ></circle>
<circle cx="807.6890651169987" cy="332.8377911081558" r="82.90481514617917" fill="#a8d1f5" transform="matrix(1,0,0,1,-4.600756645202637,0)" style="transform:matrix(1, 0, 0, 1, -4.60076, 0);animation-play-state:paused" ></circle>
<circle cx="890.5938802631779" cy="337.7070762466983" r="36.44562688133779" fill="#a8d1f5" transform="matrix(1,0,0,1,-5.399243354797363,0)" style="transform:matrix(1, 0, 0, 1, -5.39924, 0);animation-play-state:paused" ></circle>
<circle cx="927.0395071445157" cy="332.8984692532159" r="42.217704982538486" fill="#a8d1f5" transform="matrix(1,0,0,1,-6.180026531219482,0)" style="transform:matrix(1, 0, 0, 1, -6.18003, 0);animation-play-state:paused" ></circle>
<circle cx="969.2572121270542" cy="315.96909124672425" r="69.65213353840846" fill="#a8d1f5" transform="matrix(1,0,0,1,-6.911348819732666,0)" style="transform:matrix(1, 0, 0, 1, -6.91135, 0);animation-play-state:paused" ></circle>
<circle cx="1038.9093456654628" cy="299.14288212310527" r="82.92938436259985" fill="#a8d1f5" transform="matrix(1,0,0,1,-7.570517539978027,0)" style="transform:matrix(1, 0, 0, 1, -7.57052, 0);animation-play-state:paused" ></circle>
<circle cx="1121.8387300280626" cy="284.8907817173695" r="85.74257655758346" fill="#a8d1f5" transform="matrix(1,0,0,1,-8.145318984985352,0)" style="transform:matrix(1, 0, 0, 1, -8.14532, 0);animation-play-state:paused" ></circle>
<circle cx="1207.5813065856462" cy="310.2841179096487" r="44.17641764742283" fill="#a8d1f5" transform="matrix(1,0,0,1,-8.632264137268066,0)" style="transform:matrix(1, 0, 0, 1, -8.63226, 0);animation-play-state:paused" ></circle>
<circle cx="1251.757724233069" cy="259.65235849133614" r="91.41332136711735" fill="#a8d1f5" transform="matrix(1,0,0,1,-9.033672332763672,0)" style="transform:matrix(1, 0, 0, 1, -9.03367, 0);animation-play-state:paused" ></circle>
<circle cx="1343.1710456001863" cy="282.34979730809374" r="59.18679301758866" fill="#a8d1f5" transform="matrix(1,0,0,1,-9.355048179626465,0)" style="transform:matrix(1, 0, 0, 1, -9.35505, 0);animation-play-state:paused" ></circle>
<circle cx="1402.3578386177749" cy="300.706061886576" r="39.793315055217164" fill="#a8d1f5" transform="matrix(1,0,0,1,-9.603243827819824,0)" style="transform:matrix(1, 0, 0, 1, -9.60324, 0);animation-play-state:paused" ></circle>
<circle cx="1442.151153672992" cy="309.2878583835987" r="31.273298457716244" fill="#a8d1f5" transform="matrix(1,0,0,1,-9.78536319732666,0)" style="transform:matrix(1, 0, 0, 1, -9.78536, 0);animation-play-state:paused" ></circle>
<circle cx="0" cy="357.6270298860524" r="46.144141761622976" fill="#bdd7f8" transform="matrix(1,0,0,1,0,0)" style="transform:matrix(1, 0, 0, 1, 0, 0);animation-play-state:paused" ></circle>
<circle cx="46.144141761622976" cy="371.0242787105636" r="37.514268037548646" fill="#bdd7f8" transform="matrix(1,0,0,1,-0.05069173499941826,0)" style="transform:matrix(1, 0, 0, 1, -0.0506917, 0);animation-play-state:paused" ></circle>
<circle cx="83.65840979917162" cy="349.79152492813876" r="60.02613142478466" fill="#bdd7f8" transform="matrix(1,0,0,1,-0.21463675796985626,0)" style="transform:matrix(1, 0, 0, 1, -0.214637, 0);animation-play-state:paused" ></circle>
<circle cx="143.68454122395627" cy="327.2063445967755" r="90.54234969978761" fill="#bdd7f8" transform="matrix(1,0,0,1,-0.5121508240699768,0)" style="transform:matrix(1, 0, 0, 1, -0.512151, 0);animation-play-state:paused" ></circle>
<circle cx="234.2268909237439" cy="341.78524651502374" r="90.31972513229374" fill="#bdd7f8" transform="matrix(1,0,0,1,-0.9663235545158386,0)" style="transform:matrix(1, 0, 0, 1, -0.966324, 0);animation-play-state:paused" ></circle>
<circle cx="324.54661605603764" cy="354.46094670487184" r="92.95065781557577" fill="#bdd7f8" transform="matrix(1,0,0,1,-1.6002633571624756,0)" style="transform:matrix(1, 0, 0, 1, -1.60026, 0);animation-play-state:paused" ></circle>
<circle cx="417.4972738716134" cy="373.14485314440094" r="85.43875016312495" fill="#bdd7f8" transform="matrix(1,0,0,1,-2.4294748306274414,0)" style="transform:matrix(1, 0, 0, 1, -2.42947, 0);animation-play-state:paused" ></circle>
<circle cx="502.93602403473835" cy="391.3491198958538" r="68.4365609124055" fill="#bdd7f8" transform="matrix(1,0,0,1,-3.4464528560638428,0)" style="transform:matrix(1, 0, 0, 1, -3.44645, 0);animation-play-state:paused" ></circle>
<circle cx="571.3725849471439" cy="406.0494129711825" r="35.4397031293381" fill="#bdd7f8" transform="matrix(1,0,0,1,-4.6007466316223145,0)" style="transform:matrix(1, 0, 0, 1, -4.60075, 0);animation-play-state:paused" ></circle>
<circle cx="606.812288076482" cy="404.1280766502141" r="66.27844454744788" fill="#bdd7f8" transform="matrix(1,0,0,1,-5.793990612030029,0)" style="transform:matrix(1, 0, 0, 1, -5.79399, 0);animation-play-state:paused" ></circle>
<circle cx="673.0907326239299" cy="412.32303784471037" r="38.883227060373436" fill="#bdd7f8" transform="matrix(1,0,0,1,-6.911340236663818,0)" style="transform:matrix(1, 0, 0, 1, -6.91134, 0);animation-play-state:paused" ></circle>
<circle cx="711.9739596843033" cy="410.16003719405114" r="55.788445256756745" fill="#bdd7f8" transform="matrix(1,0,0,1,-7.868856906890869,0)" style="transform:matrix(1, 0, 0, 1, -7.86886, 0);animation-play-state:paused" ></circle>
<circle cx="767.76240494106" cy="406.5613759491831" r="43.234381934674055" fill="#bdd7f8" transform="matrix(1,0,0,1,-8.6322660446167,0)" style="transform:matrix(1, 0, 0, 1, -8.63227, 0);animation-play-state:paused" ></circle>
<circle cx="810.9967868757341" cy="394.8859052566637" r="80.54841981899384" fill="#bdd7f8" transform="matrix(1,0,0,1,-9.20395278930664,0)" style="transform:matrix(1, 0, 0, 1, -9.20395, 0);animation-play-state:paused" ></circle>
<circle cx="891.5452066947279" cy="400.55953788733996" r="33.95281274827157" fill="#bdd7f8" transform="matrix(1,0,0,1,-9.603243827819824,0)" style="transform:matrix(1, 0, 0, 1, -9.60324, 0);animation-play-state:paused" ></circle>
<circle cx="925.4980194429994" cy="373.47561746677763" r="92.76760738155309" fill="#bdd7f8" transform="matrix(1,0,0,1,-9.853780746459961,0)" style="transform:matrix(1, 0, 0, 1, -9.85378, 0);animation-play-state:paused" ></circle>
<circle cx="1018.2656268245526" cy="372.4456575192904" r="68.84743940864236" fill="#bdd7f8" transform="matrix(1,0,0,1,-9.977882385253906,0)" style="transform:matrix(1, 0, 0, 1, -9.97788, 0);animation-play-state:paused" ></circle>
<circle cx="1087.113066233195" cy="358.08500832616176" r="77.3441528440706" fill="#bdd7f8" transform="matrix(1,0,0,1,-9.9945707321167,0)" style="transform:matrix(1, 0, 0, 1, -9.99457, 0);animation-play-state:paused" ></circle>
<circle cx="1164.4572190772656" cy="357.5187113819012" r="65.58858991803136" fill="#bdd7f8" transform="matrix(1,0,0,1,-9.90817928314209,0)" style="transform:matrix(1, 0, 0, 1, -9.90818, 0);animation-play-state:paused" ></circle>
<circle cx="1230.045808995297" cy="382.0120522263948" r="32.241005508361845" fill="#bdd7f8" transform="matrix(1,0,0,1,-9.702130317687988,0)" style="transform:matrix(1, 0, 0, 1, -9.70213, 0);animation-play-state:paused" ></circle>
<circle cx="1262.286814503659" cy="378.15414636270697" r="34.23709614189282" fill="#bdd7f8" transform="matrix(1,0,0,1,-9.355053901672363,0)" style="transform:matrix(1, 0, 0, 1, -9.35505, 0);animation-play-state:paused" ></circle>
<circle cx="1296.5239106455517" cy="325.90754613431125" r="80.79574536287706" fill="#bdd7f8" transform="matrix(1,0,0,1,-8.84337329864502,0)" style="transform:matrix(1, 0, 0, 1, -8.84337, 0);animation-play-state:paused" ></circle>
<circle cx="1377.3196560084289" cy="327.48570438331103" r="70.10011335169219" fill="#bdd7f8" transform="matrix(1,0,0,1,-8.145320892333984,0)" style="transform:matrix(1, 0, 0, 1, -8.14532, 0);animation-play-state:paused" ></circle>
<circle cx="0" cy="415.72315499950014" r="49.39737083374986" fill="#cfddfa" transform="matrix(1,0,0,1,0,0)" style="transform:matrix(1, 0, 0, 1, 0, 0);animation-play-state:paused" ></circle>
<circle cx="49.39737083374986" cy="403.27789091285655" r="64.42813188630454" fill="#cfddfa" transform="matrix(1,0,0,1,-0.09182153642177582,0)" style="transform:matrix(1, 0, 0, 1, -0.0918215, 0);animation-play-state:paused" ></circle>
<circle cx="113.8255027200544" cy="408.2336881886763" r="66.76539325089915" fill="#cfddfa" transform="matrix(1,0,0,1,-0.3967541754245758,0)" style="transform:matrix(1, 0, 0, 1, -0.396754, 0);animation-play-state:paused" ></circle>
<circle cx="180.59089597095357" cy="430.0951287082676" r="50.87160185841971" fill="#cfddfa" transform="matrix(1,0,0,1,-0.9663238525390625,0)" style="transform:matrix(1, 0, 0, 1, -0.966324, 0);animation-play-state:paused" ></circle>
<circle cx="231.46249782937326" cy="426.5325901304413" r="61.093561409213" fill="#cfddfa" transform="matrix(1,0,0,1,-1.8546746969223022,0)" style="transform:matrix(1, 0, 0, 1, -1.85467, 0);animation-play-state:paused" ></circle>
<circle cx="292.5560592385863" cy="449.2135989862905" r="37.58992874029884" fill="#cfddfa" transform="matrix(1,0,0,1,-3.0886433124542236,0)" style="transform:matrix(1, 0, 0, 1, -3.08864, 0);animation-play-state:paused" ></circle>
<circle cx="330.1459879788851" cy="443.20638147804505" r="51.28429112017527" fill="#cfddfa" transform="matrix(1,0,0,1,-4.600748062133789,0)" style="transform:matrix(1, 0, 0, 1, -4.60075, 0);animation-play-state:paused" ></circle>
<circle cx="381.4302790990604" cy="441.597472391343" r="63.04215569276465" fill="#cfddfa" transform="matrix(1,0,0,1,-6.180018901824951,0)" style="transform:matrix(1, 0, 0, 1, -6.18002, 0);animation-play-state:paused" ></circle>
<circle cx="444.47243479182504" cy="440.7898739552121" r="81.63108272272383" fill="#cfddfa" transform="matrix(1,0,0,1,-7.5705108642578125,0)" style="transform:matrix(1, 0, 0, 1, -7.57051, 0);animation-play-state:paused" ></circle>
<circle cx="526.1035175145489" cy="465.10741301255507" r="35.886915188657476" fill="#cfddfa" transform="matrix(1,0,0,1,-8.632259368896484,0)" style="transform:matrix(1, 0, 0, 1, -8.63226, 0);animation-play-state:paused" ></circle>
<circle cx="561.9904327032064" cy="463.4016292140015" r="54.55276129398846" fill="#cfddfa" transform="matrix(1,0,0,1,-9.355045318603516,0)" style="transform:matrix(1, 0, 0, 1, -9.35505, 0);animation-play-state:paused" ></circle>
<circle cx="616.5431939971949" cy="469.2486330333758" r="49.25735319016215" fill="#cfddfa" transform="matrix(1,0,0,1,-9.78536319732666,0)" style="transform:matrix(1, 0, 0, 1, -9.78536, 0);animation-play-state:paused" ></circle>
<circle cx="665.800547187357" cy="473.63001330739166" r="45.33578874302236" fill="#cfddfa" transform="matrix(1,0,0,1,-9.977882385253906,0)" style="transform:matrix(1, 0, 0, 1, -9.97788, 0);animation-play-state:paused" ></circle>
<circle cx="711.1363359303793" cy="471.4239656225288" r="72.3391834511426" fill="#cfddfa" transform="matrix(1,0,0,1,-9.977882385253906,0)" style="transform:matrix(1, 0, 0, 1, -9.97788, 0);animation-play-state:paused" ></circle>
<circle cx="783.475519381522" cy="459.3437942672367" r="88.68817483518512" fill="#cfddfa" transform="matrix(1,0,0,1,-9.78536319732666,0)" style="transform:matrix(1, 0, 0, 1, -9.78536, 0);animation-play-state:paused" ></circle>
<circle cx="872.1636942167071" cy="447.11753002020185" r="83.89438873325558" fill="#cfddfa" transform="matrix(1,0,0,1,-9.355051040649414,0)" style="transform:matrix(1, 0, 0, 1, -9.35505, 0);animation-play-state:paused" ></circle>
<circle cx="956.0580829499627" cy="430.67785474588084" r="92.38579353252682" fill="#cfddfa" transform="matrix(1,0,0,1,-8.632268905639648,0)" style="transform:matrix(1, 0, 0, 1, -8.63227, 0);animation-play-state:paused" ></circle>
<circle cx="1048.4438764824895" cy="427.01566861904234" r="74.73399802783949" fill="#cfddfa" transform="matrix(1,0,0,1,-7.570525169372559,0)" style="transform:matrix(1, 0, 0, 1, -7.57053, 0);animation-play-state:paused" ></circle>
<circle cx="1123.177874510329" cy="422.86245714510255" r="67.41581799840355" fill="#cfddfa" transform="matrix(1,0,0,1,-6.180035591125488,0)" style="transform:matrix(1, 0, 0, 1, -6.18004, 0);animation-play-state:paused" ></circle>
<circle cx="1190.5936925087326" cy="442.8814320473033" r="36.01466789193547" fill="#cfddfa" transform="matrix(1,0,0,1,-4.600766181945801,0)" style="transform:matrix(1, 0, 0, 1, -4.60077, 0);animation-play-state:paused" ></circle>
<circle cx="1226.608360400668" cy="440.6693675329519" r="35.94472246789268" fill="#cfddfa" transform="matrix(1,0,0,1,-3.0886597633361816,0)" style="transform:matrix(1, 0, 0, 1, -3.08866, 0);animation-play-state:paused" ></circle>
<circle cx="1262.5530828685608" cy="425.83214546135747" r="48.286696598001676" fill="#cfddfa" transform="matrix(1,0,0,1,-1.8546867370605469,0)" style="transform:matrix(1, 0, 0, 1, -1.85469, 0);animation-play-state:paused" ></circle>
<circle cx="1310.8397794665625" cy="440.3749191916063" r="31.38928508722659" fill="#cfddfa" transform="matrix(1,0,0,1,-0.9663238525390625,0)" style="transform:matrix(1, 0, 0, 1, -0.966324, 0);animation-play-state:paused" ></circle>
<circle cx="1342.2290645537892" cy="419.0042442227219" r="48.34574107378973" fill="#cfddfa" transform="matrix(1,0,0,1,-0.39675426483154297,0)" style="transform:matrix(1, 0, 0, 1, -0.396754, 0);animation-play-state:paused" ></circle>
<circle cx="1390.5748056275788" cy="370.4535637502312" r="84.0961918922242" fill="#cfddfa" transform="matrix(1,0,0,1,-0.09182167053222656,0)" style="transform:matrix(1, 0, 0, 1, -0.0918217, 0);animation-play-state:paused" ></circle>
<circle cx="0" cy="467.68583423130474" r="57.76180480724603" fill="#dfe5fb" transform="matrix(1,0,0,1,0,0)" style="transform:matrix(1, 0, 0, 1, 0, 0);animation-play-state:paused" ></circle>
<circle cx="57.76180480724603" cy="502.35510481982254" r="31.537931716789306" fill="#dfe5fb" transform="matrix(1,0,0,1,-0.1462186723947525,0)" style="transform:matrix(1, 0, 0, 1, -0.146219, 0);animation-play-state:paused" ></circle>
<circle cx="89.29973652403534" cy="468.662554420942" r="65.51352340830118" fill="#dfe5fb" transform="matrix(1,0,0,1,-0.6449495553970337,0)" style="transform:matrix(1, 0, 0, 1, -0.64495, 0);animation-play-state:paused" ></circle>
<circle cx="154.8132599323365" cy="500.4379019600048" r="39.398807067928416" fill="#dfe5fb" transform="matrix(1,0,0,1,-1.6002649068832397,0)" style="transform:matrix(1, 0, 0, 1, -1.60026, 0);animation-play-state:paused" ></circle>
<circle cx="194.21206700026494" cy="467.5617201952509" r="80.85705801488717" fill="#dfe5fb" transform="matrix(1,0,0,1,-3.0886454582214355,0)" style="transform:matrix(1, 0, 0, 1, -3.08865, 0);animation-play-state:paused" ></circle>
<circle cx="275.0691250151521" cy="502.4007723044266" r="48.274666872082136" fill="#dfe5fb" transform="matrix(1,0,0,1,-4.99999475479126,0)" style="transform:matrix(1, 0, 0, 1, -4.99999, 0);animation-play-state:paused" ></circle>
<circle cx="323.34379188723426" cy="516.1341872125687" r="33.020770512570635" fill="#dfe5fb" transform="matrix(1,0,0,1,-6.911344528198242,0)" style="transform:matrix(1, 0, 0, 1, -6.91134, 0);animation-play-state:paused" ></circle>
<circle cx="356.36456239980487" cy="484.770548997255" r="91.01052460036145" fill="#dfe5fb" transform="matrix(1,0,0,1,-8.399728775024414,0)" style="transform:matrix(1, 0, 0, 1, -8.39973, 0);animation-play-state:paused" ></circle>
<circle cx="447.37508700016633" cy="515.5718367528692" r="51.76106419683744" fill="#dfe5fb" transform="matrix(1,0,0,1,-9.355046272277832,0)" style="transform:matrix(1, 0, 0, 1, -9.35505, 0);animation-play-state:paused" ></circle>
<circle cx="499.13615119700376" cy="509.81400408427425" r="84.15663424921776" fill="#dfe5fb" transform="matrix(1,0,0,1,-9.853779792785645,0)" style="transform:matrix(1, 0, 0, 1, -9.85378, 0);animation-play-state:paused" ></circle>
<circle cx="583.2927854462215" cy="528.3438804116875" r="49.41241969697723" fill="#dfe5fb" transform="matrix(1,0,0,1,-10,0)" style="transform:matrix(1, 0, 0, 1, -10, 0);animation-play-state:paused" ></circle>
<circle cx="632.7052051431988" cy="529.5070205530104" r="84.7951392860325" fill="#dfe5fb" transform="matrix(1,0,0,1,-9.853779792785645,0)" style="transform:matrix(1, 0, 0, 1, -9.85378, 0);animation-play-state:paused" ></circle>
<circle cx="717.5003444292313" cy="532.4493748695626" r="75.07357331036107" fill="#dfe5fb" transform="matrix(1,0,0,1,-9.355047225952148,0)" style="transform:matrix(1, 0, 0, 1, -9.35505, 0);animation-play-state:paused" ></circle>
<circle cx="792.5739177395924" cy="522.4920649138498" r="75.35947626537023" fill="#dfe5fb" transform="matrix(1,0,0,1,-8.399727821350098,0)" style="transform:matrix(1, 0, 0, 1, -8.39973, 0);animation-play-state:paused" ></circle>
<circle cx="867.9333940049626" cy="522.2099144571933" r="45.519219140531206" fill="#dfe5fb" transform="matrix(1,0,0,1,-6.911344528198242,0)" style="transform:matrix(1, 0, 0, 1, -6.91134, 0);animation-play-state:paused" ></circle>
<circle cx="913.4526131454937" cy="502.4567102014106" r="85.31423810738535" fill="#dfe5fb" transform="matrix(1,0,0,1,-4.999995231628418,0)" style="transform:matrix(1, 0, 0, 1, -5, 0);animation-play-state:paused" ></circle>
<circle cx="998.7668512528791" cy="496.7898615308501" r="72.47838203372051" fill="#dfe5fb" transform="matrix(1,0,0,1,-3.0886449813842773,0)" style="transform:matrix(1, 0, 0, 1, -3.08864, 0);animation-play-state:paused" ></circle>
<circle cx="1071.2452332865996" cy="499.5431882862103" r="54.911604417203506" fill="#dfe5fb" transform="matrix(1,0,0,1,-1.600264549255371,0)" style="transform:matrix(1, 0, 0, 1, -1.60026, 0);animation-play-state:paused" ></circle>
<circle cx="1126.1568377038031" cy="490.03742888003416" r="60.31618557652196" fill="#dfe5fb" transform="matrix(1,0,0,1,-0.6449499130249023,0)" style="transform:matrix(1, 0, 0, 1, -0.64495, 0);animation-play-state:paused" ></circle>
<circle cx="1186.4730232803252" cy="481.89455330128993" r="62.29565828240899" fill="#dfe5fb" transform="matrix(1,0,0,1,-0.14621829986572266,0)" style="transform:matrix(1, 0, 0, 1, -0.146218, 0);animation-play-state:paused" ></circle>
<circle cx="1248.7686815627342" cy="491.7266851906721" r="45.54522460981889" fill="#dfe5fb" transform="matrix(1,0,0,1,0,0)" style="transform:matrix(1, 0, 0, 1, 0, 0);animation-play-state:paused" ></circle>
<circle cx="1294.313906172553" cy="449.7274677706904" r="81.25549862183982" fill="#dfe5fb" transform="matrix(1,0,0,1,-0.1462186723947525,0)" style="transform:matrix(1, 0, 0, 1, -0.146219, 0);animation-play-state:paused" ></circle>
<circle cx="1375.569404794393" cy="430.1776516832781" r="87.7886309964619" fill="#dfe5fb" transform="matrix(1,0,0,1,-0.6449573636054993,0)" style="transform:matrix(1, 0, 0, 1, -0.644957, 0);animation-play-state:paused" ></circle>
<circle cx="0" cy="548.6557080647686" r="41.95357661269282" fill="#ecedfc" transform="matrix(1,0,0,1,0,0)" style="transform:matrix(1, 0, 0, 1, 0, 0);animation-play-state:paused" ></circle>
<circle cx="41.95357661269282" cy="497.0551562948691" r="90.51389222157316" fill="#ecedfc" transform="matrix(1,0,0,1,-0.2146369218826294,0)" style="transform:matrix(1, 0, 0, 1, -0.214637, 0);animation-play-state:paused" ></circle>
<circle cx="132.467468834266" cy="510.14193524850265" r="91.86568578239985" fill="#ecedfc" transform="matrix(1,0,0,1,-0.9663243293762207,0)" style="transform:matrix(1, 0, 0, 1, -0.966324, 0);animation-play-state:paused" ></circle>
<circle cx="224.33315461666584" cy="572.6159507130843" r="32.74036817126463" fill="#ecedfc" transform="matrix(1,0,0,1,-2.429476737976074,0)" style="transform:matrix(1, 0, 0, 1, -2.42948, 0);animation-play-state:paused" ></circle>
<circle cx="257.0735227879305" cy="564.0321918430076" r="46.72757359351802" fill="#ecedfc" transform="matrix(1,0,0,1,-4.600749969482422,0)" style="transform:matrix(1, 0, 0, 1, -4.60075, 0);animation-play-state:paused" ></circle>
<circle cx="303.8010963814485" cy="570.1959222203081" r="43.23409371659529" fill="#ecedfc" transform="matrix(1,0,0,1,-6.911343574523926,0)" style="transform:matrix(1, 0, 0, 1, -6.91134, 0);animation-play-state:paused" ></circle>
<circle cx="347.03519009804376" cy="578.5300247450854" r="34.67871407719449" fill="#ecedfc" transform="matrix(1,0,0,1,-8.632261276245117,0)" style="transform:matrix(1, 0, 0, 1, -8.63226, 0);animation-play-state:paused" ></circle>
<circle cx="381.71390417523827" cy="572.8130342625708" r="49.47041435179894" fill="#ecedfc" transform="matrix(1,0,0,1,-9.603241920471191,0)" style="transform:matrix(1, 0, 0, 1, -9.60324, 0);animation-play-state:paused" ></circle>
<circle cx="431.1843185270372" cy="558.7302325947654" r="91.01978537401072" fill="#ecedfc" transform="matrix(1,0,0,1,-9.977882385253906,0)" style="transform:matrix(1, 0, 0, 1, -9.97788, 0);animation-play-state:paused" ></circle>
<circle cx="522.2041039010479" cy="580.0572669013346" r="67.05128997004269" fill="#ecedfc" transform="matrix(1,0,0,1,-9.908180236816406,0)" style="transform:matrix(1, 0, 0, 1, -9.90818, 0);animation-play-state:paused" ></circle>
<circle cx="589.2553938710906" cy="587.9621631767407" r="67.0157895086372" fill="#ecedfc" transform="matrix(1,0,0,1,-9.35505485534668,0)" style="transform:matrix(1, 0, 0, 1, -9.35505, 0);animation-play-state:paused" ></circle>
<circle cx="656.2711833797279" cy="595.8964358380612" r="66.0876721155368" fill="#ecedfc" transform="matrix(1,0,0,1,-8.145316123962402,0)" style="transform:matrix(1, 0, 0, 1, -8.14532, 0);animation-play-state:paused" ></circle>
<circle cx="722.3588554952646" cy="595.4975031703316" r="50.64945157749208" fill="#ecedfc" transform="matrix(1,0,0,1,-6.180019855499268,0)" style="transform:matrix(1, 0, 0, 1, -6.18002, 0);animation-play-state:paused" ></circle>
<circle cx="773.0083070727567" cy="589.3302608221927" r="61.14650296577423" fill="#ecedfc" transform="matrix(1,0,0,1,-3.8199663162231445,0)" style="transform:matrix(1, 0, 0, 1, -3.81997, 0);animation-play-state:paused" ></circle>
<circle cx="834.154810038531" cy="575.2229527006423" r="89.53140658310099" fill="#ecedfc" transform="matrix(1,0,0,1,-1.8546762466430664,0)" style="transform:matrix(1, 0, 0, 1, -1.85468, 0);animation-play-state:paused" ></circle>
<circle cx="923.686216621632" cy="581.2192597030743" r="42.04729638330833" fill="#ecedfc" transform="matrix(1,0,0,1,-0.6449489593505859,0)" style="transform:matrix(1, 0, 0, 1, -0.644949, 0);animation-play-state:paused" ></circle>
<circle cx="965.7335130049403" cy="562.0141104771791" r="74.45574891236089" fill="#ecedfc" transform="matrix(1,0,0,1,-0.09182167053222656,0)" style="transform:matrix(1, 0, 0, 1, -0.0918217, 0);animation-play-state:paused" ></circle>
<circle cx="1040.189261917301" cy="573.0008529732819" r="41.428591021865124" fill="#ecedfc" transform="matrix(1,0,0,1,-0.022117624059319496,0)" style="transform:matrix(1, 0, 0, 1, -0.0221176, 0);animation-play-state:paused" ></circle>
<circle cx="1081.6178529391661" cy="544.5789513238236" r="77.70511692623768" fill="#ecedfc" transform="matrix(1,0,0,1,-0.39675432443618774,0)" style="transform:matrix(1, 0, 0, 1, -0.396754, 0);animation-play-state:paused" ></circle>
<circle cx="1159.3229698654038" cy="545.6241962146217" r="63.77968362466814" fill="#ecedfc" transform="matrix(1,0,0,1,-1.3677316904067993,0)" style="transform:matrix(1, 0, 0, 1, -1.36773, 0);animation-play-state:paused" ></circle>
<circle cx="1223.102653490072" cy="527.4112331525537" r="75.44110278674493" fill="#ecedfc" transform="matrix(1,0,0,1,-3.0886449813842773,0)" style="transform:matrix(1, 0, 0, 1, -3.08864, 0);animation-play-state:paused" ></circle>
<circle cx="1298.543756276817" cy="499.69996122816764" r="91.8184474967165" fill="#ecedfc" transform="matrix(1,0,0,1,-5.399237155914307,0)" style="transform:matrix(1, 0, 0, 1, -5.39924, 0);animation-play-state:paused" ></circle>
<circle cx="1390.3622037735336" cy="496.49199626583106" r="82.48127830520954" fill="#ecedfc" transform="matrix(1,0,0,1,-7.570533275604248,0)" style="transform:matrix(1, 0, 0, 1, -7.57053, 0);animation-play-state:paused" ></circle>
<circle cx="0" cy="579.8701224284557" r="67.6082313096202" fill="#f7f5fd" transform="matrix(1,0,0,1,0,0)" style="transform:matrix(1, 0, 0, 1, 0, 0);animation-play-state:paused" ></circle>
<circle cx="67.6082313096202" cy="612.5316166543154" r="44.827684722356224" fill="#f7f5fd" transform="matrix(1,0,0,1,-0.2978711724281311,0)" style="transform:matrix(1, 0, 0, 1, -0.297871, 0);animation-play-state:paused" ></circle>
<circle cx="112.43591603197642" cy="601.3659022973043" r="59.488042733197794" fill="#f7f5fd" transform="matrix(1,0,0,1,-1.3677312135696411,0)" style="transform:matrix(1, 0, 0, 1, -1.36773, 0);animation-play-state:paused" ></circle>
<circle cx="171.9239587651742" cy="602.9570045238617" r="64.64035797624659" fill="#f7f5fd" transform="matrix(1,0,0,1,-3.446455240249634,0)" style="transform:matrix(1, 0, 0, 1, -3.44646, 0);animation-play-state:paused" ></circle>
<circle cx="236.56431674142078" cy="613.105953371918" r="61.060743786231605" fill="#f7f5fd" transform="matrix(1,0,0,1,-6.180019855499268,0)" style="transform:matrix(1, 0, 0, 1, -6.18002, 0);animation-play-state:paused" ></circle>
<circle cx="297.6250605276524" cy="637.9108996623487" r="34.10067684605154" fill="#f7f5fd" transform="matrix(1,0,0,1,-8.399725914001465,0)" style="transform:matrix(1, 0, 0, 1, -8.39973, 0);animation-play-state:paused" ></circle>
<circle cx="331.72573737370396" cy="631.2455225892342" r="48.210923851004836" fill="#f7f5fd" transform="matrix(1,0,0,1,-9.603241920471191,0)" style="transform:matrix(1, 0, 0, 1, -9.60324, 0);animation-play-state:paused" ></circle>
<circle cx="379.9366612247088" cy="624.2006633136236" r="69.11081981070306" fill="#f7f5fd" transform="matrix(1,0,0,1,-9.994569778442383,0)" style="transform:matrix(1, 0, 0, 1, -9.99457, 0);animation-play-state:paused" ></circle>
<circle cx="449.04748103541186" cy="634.0086516304897" r="65.66535743365226" fill="#f7f5fd" transform="matrix(1,0,0,1,-9.78536605834961,0)" style="transform:matrix(1, 0, 0, 1, -9.78537, 0);animation-play-state:paused" ></circle>
<circle cx="514.7128384690641" cy="637.7285435410959" r="78.7067604010783" fill="#f7f5fd" transform="matrix(1,0,0,1,-8.843377113342285,0)" style="transform:matrix(1, 0, 0, 1, -8.84338, 0);animation-play-state:paused" ></circle>
<circle cx="593.4195988701424" cy="648.047560369242" r="82.29586825753368" fill="#f7f5fd" transform="matrix(1,0,0,1,-6.911369323730469,0)" style="transform:matrix(1, 0, 0, 1, -6.91137, 0);animation-play-state:paused" ></circle>
<circle cx="675.7154671276761" cy="659.9878545228487" r="79.082554435387" fill="#f7f5fd" transform="matrix(1,0,0,1,-4.205992698669434,0)" style="transform:matrix(1, 0, 0, 1, -4.20599, 0);animation-play-state:paused" ></circle>
<circle cx="754.7980215630631" cy="654.4588478128302" r="51.85387710524517" fill="#f7f5fd" transform="matrix(1,0,0,1,-1.8546743392944336,0)" style="transform:matrix(1, 0, 0, 1, -1.85467, 0);animation-play-state:paused" ></circle>
<circle cx="806.6518986683083" cy="646.0267167569826" r="68.92165671749841" fill="#f7f5fd" transform="matrix(1,0,0,1,-0.512150764465332,0)" style="transform:matrix(1, 0, 0, 1, -0.512151, 0);animation-play-state:paused" ></circle>
<circle cx="875.5735553858067" cy="636.9086627115921" r="71.20388940482796" fill="#f7f5fd" transform="matrix(1,0,0,1,-0.02211761474609375,0)" style="transform:matrix(1, 0, 0, 1, -0.0221176, 0);animation-play-state:paused" ></circle>
<circle cx="946.7774447906346" cy="632.6354042103358" r="61.203801749480704" fill="#f7f5fd" transform="matrix(1,0,0,1,-0.14621861279010773,0)" style="transform:matrix(1, 0, 0, 1, -0.146219, 0);animation-play-state:paused" ></circle>
<circle cx="1007.9812465401153" cy="634.8995599382587" r="45.71186992059458" fill="#f7f5fd" transform="matrix(1,0,0,1,-0.9663241505622864,0)" style="transform:matrix(1, 0, 0, 1, -0.966324, 0);animation-play-state:paused" ></circle>
<circle cx="1053.69311646071" cy="635.1871244352615" r="39.6333994074068" fill="#f7f5fd" transform="matrix(1,0,0,1,-2.7490415573120117,0)" style="transform:matrix(1, 0, 0, 1, -2.74904, 0);animation-play-state:paused" ></circle>
<circle cx="1093.3265158681168" cy="600.3216843154422" r="84.16729931298846" fill="#f7f5fd" transform="matrix(1,0,0,1,-5.39923620223999,0)" style="transform:matrix(1, 0, 0, 1, -5.39924, 0);animation-play-state:paused" ></circle>
<circle cx="1177.4938151811052" cy="600.2508324141263" r="69.92281835711754" fill="#f7f5fd" transform="matrix(1,0,0,1,-7.86884880065918,0)" style="transform:matrix(1, 0, 0, 1, -7.86885, 0);animation-play-state:paused" ></circle>
<circle cx="1247.4166335382229" cy="583.4512867524898" r="78.20134985512524" fill="#f7f5fd" transform="matrix(1,0,0,1,-9.355045318603516,0)" style="transform:matrix(1, 0, 0, 1, -9.35505, 0);animation-play-state:paused" ></circle>
<circle cx="1325.6179833933481" cy="583.2292226540044" r="68.88156766537519" fill="#f7f5fd" transform="matrix(1,0,0,1,-9.94930648803711,0)" style="transform:matrix(1, 0, 0, 1, -9.94931, 0);animation-play-state:paused" ></circle>
<circle cx="1394.4995510587232" cy="620.1544507733121" r="32.67454640966377" fill="#f7f5fd" transform="matrix(1,0,0,1,-9.90817642211914,0)" style="transform:matrix(1, 0, 0, 1, -9.90818, 0);animation-play-state:paused" ></circle>
<circle cx="0" cy="658.4612093080902" r="53.78232557659141" fill="#ffffff" transform="matrix(1,0,0,1,0,0)" style="transform:matrix(1, 0, 0, 1, 0, 0);animation-play-state:paused" ></circle>
<circle cx="53.78232557659141" cy="664.2293012033588" r="53.16176593800796" fill="#ffffff" transform="matrix(1,0,0,1,-0.39675456285476685,0)" style="transform:matrix(1, 0, 0, 1, -0.396755, 0);animation-play-state:paused" ></circle>
<circle cx="106.94409151459936" cy="678.0099801743959" r="44.45196940125703" fill="#ffffff" transform="matrix(1,0,0,1,-1.854676604270935,0)" style="transform:matrix(1, 0, 0, 1, -1.85468, 0);animation-play-state:paused" ></circle>
<circle cx="151.3960609158564" cy="678.2806206806597" r="47.879216445313965" fill="#ffffff" transform="matrix(1,0,0,1,-4.600751876831055,0)" style="transform:matrix(1, 0, 0, 1, -4.60075, 0);animation-play-state:paused" ></circle>
<circle cx="199.27527736117037" cy="679.0501229223615" r="51.7128934411864" fill="#ffffff" transform="matrix(1,0,0,1,-7.5705156326293945,0)" style="transform:matrix(1, 0, 0, 1, -7.57052, 0);animation-play-state:paused" ></circle>
<circle cx="250.98817080235676" cy="699.0332106814097" r="31.5757501652196" fill="#ffffff" transform="matrix(1,0,0,1,-9.355047225952148,0)" style="transform:matrix(1, 0, 0, 1, -9.35505, 0);animation-play-state:paused" ></circle>
<circle cx="282.56392096757634" cy="685.9036433814637" r="52.72754066783441" fill="#ffffff" transform="matrix(1,0,0,1,-9.977882385253906,0)" style="transform:matrix(1, 0, 0, 1, -9.97788, 0);animation-play-state:paused" ></circle>
<circle cx="335.29146163541077" cy="678.4145322434603" r="72.98228045856995" fill="#ffffff" transform="matrix(1,0,0,1,-9.785364151000977,0)" style="transform:matrix(1, 0, 0, 1, -9.78536, 0);animation-play-state:paused" ></circle>
<circle cx="408.27374209398073" cy="687.1255695650074" r="74.32318317470369" fill="#ffffff" transform="matrix(1,0,0,1,-8.632271766662598,0)" style="transform:matrix(1, 0, 0, 1, -8.63227, 0);animation-play-state:paused" ></circle>
<circle cx="482.5969252686844" cy="695.2454075155829" r="78.82608043926847" fill="#ffffff" transform="matrix(1,0,0,1,-6.18004035949707,0)" style="transform:matrix(1, 0, 0, 1, -6.18004, 0);animation-play-state:paused" ></circle>
<circle cx="561.4230057079528" cy="704.122277164435" r="88.37667556384548" fill="#ffffff" transform="matrix(1,0,0,1,-3.0886611938476562,0)" style="transform:matrix(1, 0, 0, 1, -3.08866, 0);animation-play-state:paused" ></circle>
<circle cx="649.7996812717984" cy="719.0518461536212" r="67.68481901114333" fill="#ffffff" transform="matrix(1,0,0,1,-0.9663171768188477,0)" style="transform:matrix(1, 0, 0, 1, -0.966317, 0);animation-play-state:paused" ></circle>
<circle cx="717.4845002829417" cy="719.2204258992577" r="62.3818693815678" fill="#ffffff" transform="matrix(1,0,0,1,-0.09181976318359375,0)" style="transform:matrix(1, 0, 0, 1, -0.0918198, 0);animation-play-state:paused" ></circle>
<circle cx="779.8663696645094" cy="711.6181002976954" r="66.8776783555727" fill="#ffffff" transform="matrix(1,0,0,1,-0.09182371944189072,0)" style="transform:matrix(1, 0, 0, 1, -0.0918237, 0);animation-play-state:paused" ></circle>
<circle cx="846.7440480200821" cy="712.7583362779769" r="35.59954497442169" fill="#ffffff" transform="matrix(1,0,0,1,-0.9663326740264893,0)" style="transform:matrix(1, 0, 0, 1, -0.966333, 0);animation-play-state:paused" ></circle>
<circle cx="882.3435929945038" cy="708.6624113352814" r="40.93674356797945" fill="#ffffff" transform="matrix(1,0,0,1,-3.0886616706848145,0)" style="transform:matrix(1, 0, 0, 1, -3.08866, 0);animation-play-state:paused" ></circle>
<circle cx="923.2803365624832" cy="699.4954961346355" r="55.67654976721094" fill="#ffffff" transform="matrix(1,0,0,1,-6.18004035949707,0)" style="transform:matrix(1, 0, 0, 1, -6.18004, 0);animation-play-state:paused" ></circle>
<circle cx="978.9568863296942" cy="690.086849358253" r="63.29661212678296" fill="#ffffff" transform="matrix(1,0,0,1,-8.632272720336914,0)" style="transform:matrix(1, 0, 0, 1, -8.63227, 0);animation-play-state:paused" ></circle>
<circle cx="1042.253498456477" cy="668.8369404434022" r="85.81073864763395" fill="#ffffff" transform="matrix(1,0,0,1,-9.785365104675293,0)" style="transform:matrix(1, 0, 0, 1, -9.78537, 0);animation-play-state:paused" ></circle>
<circle cx="1128.064237104111" cy="688.9777345465606" r="43.50908881508908" fill="#ffffff" transform="matrix(1,0,0,1,-9.97788143157959,0)" style="transform:matrix(1, 0, 0, 1, -9.97788, 0);animation-play-state:paused" ></circle>
<circle cx="1171.5733259192002" cy="678.7078207521158" r="51.59846165259106" fill="#ffffff" transform="matrix(1,0,0,1,-9.355047225952148,0)" style="transform:matrix(1, 0, 0, 1, -9.35505, 0);animation-play-state:paused" ></circle>
<circle cx="1223.1717875717914" cy="683.6793142403477" r="41.43130789090754" fill="#ffffff" transform="matrix(1,0,0,1,-7.5705156326293945,0)" style="transform:matrix(1, 0, 0, 1, -7.57052, 0);animation-play-state:paused" ></circle>
<circle cx="1264.603095462699" cy="631.1595295184105" r="89.87664415286311" fill="#ffffff" transform="matrix(1,0,0,1,-4.6007161140441895,0)" style="transform:matrix(1, 0, 0, 1, -4.60072, 0);animation-play-state:paused" ></circle>
<circle cx="1354.479739615562" cy="616.5576966133024" r="90.22373637902194" fill="#ffffff" transform="matrix(1,0,0,1,-1.854654312133789,0)" style="transform:matrix(1, 0, 0, 1, -1.85465, 0);animation-play-state:paused" ></circle></g></svg>