<?xml version="1.0" encoding="utf-8"?><svg xmlns="http://www.w3.org/2000/svg" xmlns:xlink="http://www.w3.org/1999/xlink" width="1476" height="713" preserveAspectRatio="xMidYMid" viewBox="0 0 1476 713" style="z-index:1;margin-right:-2px;display:block;background-repeat-y:initial;background-repeat-x:initial;background-color:rgb(255, 255, 255);animation-play-state:paused" ><g transform="translate(738,356.5) scale(1,1) translate(-738,-356.5)" style="transform:matrix(1, 0, 0, 1, 0, 0);animation-play-state:paused" ><linearGradient id="lg-0.17331876940142532" x1="0" x2="1" y1="0" y2="0" style="animation-play-state:paused" ><stop stop-color="#ff00ff" offset="0" style="animation-play-state:paused" ></stop>

  
<stop stop-color="#00ffff" offset="1" style="animation-play-state:paused" ></stop></linearGradient>
<path d="M 0 0 L 0 697.128 Q 147.6 609.16 295.2 574.459 T 590.4 498.423 T 885.6 415.382 T 1180.8 418.511 T 1476 379.43 L 1476 0 Z" fill="url(#lg-0.17331876940142532)" opacity="0.4" style="opacity:0.4;animation-play-state:paused" ></path>
<path d="M 0 0 L 0 631.116 Q 147.6 577.132 295.2 546.736 T 590.4 470.505 T 885.6 431.151 T 1180.8 386.324 T 1476 246.095 L 1476 0 Z" fill="url(#lg-0.17331876940142532)" opacity="0.4" style="opacity:0.4;animation-play-state:paused" ></path>
<path d="M 0 0 L 0 605.609 Q 147.6 607.572 295.2 588.429 T 590.4 569.766 T 885.6 497.299 T 1180.8 366.124 T 1476 291.404 L 1476 0 Z" fill="url(#lg-0.17331876940142532)" opacity="0.4" style="opacity:0.4;animation-play-state:paused" ></path>
<path d="M 0 0 L 0 603.061 Q 147.6 668.274 295.2 643.425 T 590.4 502.159 T 885.6 452.681 T 1180.8 396.075 T 1476 331.726 L 1476 0 Z" fill="url(#lg-0.17331876940142532)" opacity="0.4" style="opacity:0.4;animation-play-state:paused" ></path>
<path d="M 0 0 L 0 681.275 Q 147.6 642.83 295.2 619.33 T 590.4 544.412 T 885.6 469.296 T 1180.8 369.257 T 1476 290.735 L 1476 0 Z" fill="url(#lg-0.17331876940142532)" opacity="0.4" style="opacity:0.4;animation-play-state:paused" ></path></g></svg>